<svg width="10" height="17" viewBox="0 0 10 17" fill="none" xmlns="http://www.w3.org/2000/svg">
<path d="M9.62646 8.30176C9.62646 8.53369 9.53369 8.73779 9.35742 8.91406L2.00977 16.104C1.84277 16.271 1.63867 16.3545 1.39746 16.3545C0.924316 16.3545 0.553223 15.9927 0.553223 15.5103C0.553223 15.269 0.645996 15.0649 0.794434 14.9072L7.54834 8.30176L0.794434 1.69629C0.645996 1.53857 0.553223 1.3252 0.553223 1.09326C0.553223 0.61084 0.924316 0.249023 1.39746 0.249023C1.63867 0.249023 1.84277 0.33252 2.00977 0.490234L9.35742 7.68945C9.53369 7.85645 9.62646 8.06982 9.62646 8.30176Z" fill="black"/>
</svg>
