<svg width="19" height="21" viewBox="0 0 19 21" fill="none" xmlns="http://www.w3.org/2000/svg">
<path d="M5.15088 20.811C3.80566 20.811 2.93359 19.9575 2.86865 18.6309L2.21924 5.13232H1.11523C0.744141 5.13232 0.419434 4.81689 0.419434 4.42725C0.419434 4.04688 0.744141 3.73145 1.11523 3.73145H5.32715V2.31201C5.32715 0.966797 6.19922 0.150391 7.62793 0.150391H11.1533C12.582 0.150391 13.4541 0.966797 13.4541 2.31201V3.73145H17.6938C18.0742 3.73145 18.3804 4.04688 18.3804 4.42725C18.3804 4.80762 18.0742 5.13232 17.6938 5.13232H16.5806L15.9404 18.6216C15.8755 19.9482 14.9849 20.811 13.6582 20.811H5.15088ZM6.80225 2.40479V3.73145H11.979V2.40479C11.979 1.87598 11.6079 1.53271 11.0513 1.53271H7.72998C7.17334 1.53271 6.80225 1.87598 6.80225 2.40479ZM5.28076 19.4102H13.5098C14.0571 19.4102 14.4561 19.0205 14.4746 18.4639L15.0869 5.13232H3.67578L4.3252 18.4639C4.35303 19.0112 4.75195 19.4102 5.28076 19.4102ZM6.65381 17.8237C6.31055 17.8237 6.07861 17.6104 6.06934 17.2764L5.79102 7.35889C5.78174 7.03418 6.01367 6.81152 6.36621 6.81152C6.7002 6.81152 6.93213 7.0249 6.94141 7.34961L7.229 17.2764C7.23828 17.6011 7.00635 17.8237 6.65381 17.8237ZM9.3999 17.8237C9.04736 17.8237 8.80615 17.6011 8.80615 17.2764V7.35889C8.80615 7.03418 9.04736 6.81152 9.3999 6.81152C9.75244 6.81152 10.0029 7.03418 10.0029 7.35889V17.2764C10.0029 17.6011 9.75244 17.8237 9.3999 17.8237ZM12.1553 17.8237C11.8027 17.8237 11.5708 17.6011 11.5801 17.2764L11.8584 7.35889C11.8677 7.0249 12.0996 6.81152 12.4336 6.81152C12.7861 6.81152 13.0181 7.03418 13.0088 7.35889L12.7305 17.2764C12.7212 17.6104 12.4893 17.8237 12.1553 17.8237Z" fill="#636870"/>
</svg>
